<svg width="440" height="280" viewBox="0 0 440 280" xmlns="http://www.w3.org/2000/svg">
  <defs>
    <linearGradient id="bg" x1="40" y1="20" x2="400" y2="270" gradientUnits="userSpaceOnUse">
      <stop stop-color="#24202F"/>
      <stop offset="0.5" stop-color="#16171B"/>
      <stop offset="1" stop-color="#191326"/>
    </linearGradient>
    <linearGradient id="sheet" x1="86" y1="52" x2="350" y2="234" gradientUnits="userSpaceOnUse">
      <stop stop-color="#383B45"/>
      <stop offset="1" stop-color="#23252C"/>
    </linearGradient>
    <filter id="shadow" x="-40%" y="-40%" width="180%" height="180%">
      <feDropShadow dx="0" dy="16" stdDeviation="18" flood-color="#000" flood-opacity="0.42"/>
    </filter>
    <pattern id="grid" width="20" height="20" patternUnits="userSpaceOnUse">
      <path d="M20 0H0V20" fill="none" stroke="#FFFFFF" stroke-opacity="0.035"/>
    </pattern>
  </defs>

  <rect width="440" height="280" fill="url(#bg)"/>
  <rect width="440" height="280" fill="url(#grid)"/>
  <circle cx="74" cy="40" r="92" fill="#EC4899" opacity="0.08"/>
  <circle cx="390" cy="252" r="118" fill="#8B5CF6" opacity="0.1"/>

  <g filter="url(#shadow)">
    <rect x="82" y="45" width="276" height="190" rx="24" fill="url(#sheet)" stroke="#FFFFFF" stroke-opacity="0.08"/>
    <rect x="102" y="65" width="236" height="14" rx="7" fill="#FFFFFF" opacity="0.06"/>
    <circle cx="115" cy="72" r="3" fill="#EC4899"/>
    <circle cx="127" cy="72" r="3" fill="#8B5CF6"/>
    <rect x="102" y="94" width="106" height="120" rx="15" fill="#16171B"/>
    <rect x="224" y="94" width="114" height="14" rx="7" fill="#FFFFFF" opacity="0.08"/>
    <rect x="224" y="119" width="88" height="8" rx="4" fill="#FFFFFF" opacity="0.05"/>
    <rect x="224" y="139" width="103" height="8" rx="4" fill="#FFFFFF" opacity="0.05"/>
    <rect x="224" y="178" width="50" height="20" rx="10" fill="#EC4899" opacity="0.9"/>
    <rect x="282" y="178" width="46" height="20" rx="10" fill="#8B5CF6" opacity="0.65"/>
  </g>

  <g style="isolation:isolate" filter="url(#shadow)">
    <rect x="124" y="111" width="70" height="70" rx="16" fill="#EC4899"/>
    <rect x="150" y="137" width="70" height="70" rx="16" fill="#8B5CF6" style="mix-blend-mode:difference"/>
  </g>

  <path d="M46 214C105 184 127 246 187 220C246 194 267 243 328 215C359 201 380 198 404 203" fill="none" stroke="#EC4899" stroke-width="2" stroke-linecap="round" opacity="0.28"/>
</svg>
